<?xml version="1.0" encoding="utf-8"?>
<!-- Generator: Adobe Illustrator 19.1.0, SVG Export Plug-In . SVG Version: 6.00 Build 0)  -->
<svg version="1.1" id="Layer_1" xmlns="http://www.w3.org/2000/svg" xmlns:xlink="http://www.w3.org/1999/xlink" x="0px" y="0px"
	 viewBox="-199 335.1 196.5 171.8" style="enable-background:new -199 335.1 196.5 171.8;" xml:space="preserve">
<style type="text/css">
	.st0{fill:#4F4F51;}
</style>
<g id="Layer_2">
</g>
<g id="Layer_1_1_">
	<g>
		<path class="st0" d="M-49.8,423c-2,1.2-3.2,2.5-4.1,2.4c-1-0.2-2.5-1.8-2.4-2.7c0-0.9,1.7-2.4,2.7-2.5
			C-52.7,420.1-51.7,421.6-49.8,423z"/>
		<path class="st0" d="M-58.7,423c-2,1.2-3.2,2.5-4.1,2.4c-1-0.2-2.5-1.8-2.4-2.7c0.1-0.9,1.7-2.4,2.7-2.5
			C-61.7,420.1-60.6,421.6-58.7,423z"/>
		<path class="st0" d="M-179,426.8c-1.2-2-2.5-3.2-2.4-4.2c0.2-1,1.7-1.8,2.7-2.7c0.9,1,2.4,1.9,2.5,2.9
			C-176.2,423.9-177.6,424.9-179,426.8z"/>
		<path class="st0" d="M-183.7,422.6c-1.9,1.4-3,2.8-3.9,2.8c-1-0.1-1.9-1.6-2.9-2.5c0.9-1,1.7-2.5,2.7-2.7
			C-186.9,420-185.7,421.4-183.7,422.6z"/>
		<path class="st0" d="M-58.8,431.5c-1.9,1.4-2.9,2.9-3.9,2.8c-1-0.1-2.6-1.5-2.7-2.5c-0.1-0.9,1.4-2.5,2.5-2.7
			C-61.9,429-60.7,430.3-58.8,431.5z"/>
		<path class="st0" d="M-179,417.8c-1.2-2-2.5-3.2-2.4-4.1c0.2-1,1.7-1.8,2.7-2.7c0.9,1,2.4,1.9,2.5,2.9
			C-176.2,414.9-177.6,416-179,417.8z"/>
		<path class="st0" d="M-67.7,413.6c-1.9,1.4-3,2.8-3.9,2.8c-1-0.1-1.9-1.6-2.9-2.4c0.9-1,1.7-2.5,2.7-2.7
			C-70.9,411.1-69.7,412.4-67.7,413.6z"/>
		<path class="st0" d="M-53.7,409.8c1.2,2,2.5,3.2,2.4,4.1c-0.1,1-1.8,2.5-2.7,2.4c-0.9,0-2.4-1.7-2.4-2.7
			C-56.5,412.7-55.1,411.6-53.7,409.8z"/>
		<path class="st0" d="M-165.9,422.6c-1.9,1.4-2.9,2.8-3.9,2.8c-1-0.1-2.6-1.6-2.7-2.5c0-0.9,1.5-2.5,2.4-2.7
			C-169,420-167.8,421.4-165.9,422.6z"/>
		<path class="st0" d="M-71.6,426.8c-1.4-1.9-2.8-3-2.8-3.9c0.1-1,1.6-2.6,2.5-2.7c0.9-0.1,2.5,1.5,2.6,2.5
			C-69,423.7-70.4,424.8-71.6,426.8z"/>
		<path class="st0" d="M-174.7,431.4c-2,1.5-3.1,3-4,2.9c-1-0.1-2.3-1.6-2.7-2.7c-0.2-0.6,1.4-2.4,2.3-2.5
			C-178,429.1-176.9,430.2-174.7,431.4z"/>
		<path class="st0" d="M-49.8,431.9c-2,1.3-3.2,2.6-4.1,2.4c-1-0.1-2.5-1.8-2.4-2.7c0-0.9,1.7-2.4,2.7-2.5
			C-52.8,429.1-51.7,430.5-49.8,431.9z"/>
		<path class="st0" d="M-148.1,378.1c-1.6,1.2-2.6,2.5-3.5,2.4c-1.1-0.1-2.1-1.3-3.1-2.1c0.8-1,1.6-2.9,2.5-2.9
			C-151.1,375.4-149.9,376.8-148.1,378.1z"/>
		<path class="st0" d="M-89.7,381.8c-1.3-1.7-2.9-3.1-2.6-3.4c0.7-1.2,2-2.1,3.1-3.1c0.7,0.9,2.1,1.9,2.1,2.8
			C-87.2,379.1-88.4,380.1-89.7,381.8z"/>
		<path class="st0" d="M-80.4,382c-1.5-1.9-3.1-3.2-2.9-3.9c0.3-1.1,1.7-2.2,2.9-2.7c0.4-0.2,2.1,1.5,2.2,2.5
			C-78.1,378.9-79.2,380-80.4,382z"/>
		<path class="st0" d="M-157,387c-1.6,1.2-2.6,2.6-3.4,2.5c-1.1-0.1-2.1-1.3-3.1-2c0.8-1.1,1.5-2.9,2.4-3
			C-160.2,384.3-159,385.7-157,387z"/>
		<path class="st0" d="M-80.7,383.1c1.2,1.8,2.4,2.8,2.5,3.9c0.1,0.8-1.5,2.5-2.1,2.4c-1.2-0.2-3-1.3-3-2.1
			C-83.4,386.2-82,385-80.7,383.1z"/>
		<path class="st0" d="M-44.8,383.3c1.2,1.7,2.6,2.9,2.5,3.9c-0.1,0.9-1.9,1.6-2.9,2.4c-0.8-1-2.1-2-2.2-3.1
			C-47.5,385.7-46.1,384.7-44.8,383.3z"/>
		<path class="st0" d="M-35.8,391c-1.4-2-2.6-3-2.6-4c0-0.9,1.6-2.8,2-2.6c1.2,0.4,2.7,1.4,3.1,2.4C-33.1,387.6-34.5,389-35.8,391z"
			/>
		<path class="st0" d="M-170.1,400c-1.2-2.1-2.4-3.3-2.3-4.3c0.1-0.9,1.8-2.5,2.4-2.4c1.2,0.4,2.6,1.6,2.8,2.7
			C-167.1,396.8-168.6,398-170.1,400z"/>
		<path class="st0" d="M-160.9,392.2c1.2,1.8,2.7,3,2.6,4c-0.1,0.9-1.9,1.6-2.9,2.4c-0.8-1-2.1-2-2.2-3.2
			C-163.5,394.6-162.1,393.6-160.9,392.2z"/>
		<path class="st0" d="M-130.2,396.3c-1.9,1.1-3.1,2.2-4.2,2.2c-0.8,0-2.3-1.7-2.2-2.3c0.3-1.1,1.6-2.9,2.3-2.8
			C-133,393.4-132,394.8-130.2,396.3z"/>
		<path class="st0" d="M-107,399.9c-1.7-1.9-3.3-3-3.2-3.8c0.2-1.1,1.7-2,2.6-3.1c0.9,0.8,2.3,1.5,2.4,2.4
			C-105,396.6-106,397.8-107,399.9z"/>
		<path class="st0" d="M-80.6,400c-1.4-2-2.9-3.2-2.8-4.1c0.2-1.1,1.7-2.3,2.8-2.6c0.5-0.2,2.3,1.5,2.3,2.4
			C-78.1,396.8-79.3,397.9-80.6,400z"/>
		<path class="st0" d="M-67.6,395.6c-2,1.5-3,2.7-4,2.8c-0.9,0.1-2.8-1.5-2.7-2c0.3-1.2,1.3-2.8,2.3-3.1
			C-71.1,393-69.8,394.4-67.6,395.6z"/>
		<path class="st0" d="M-53.8,400c-1.4-2.1-2.8-3.3-2.6-4.2c0.2-1,1.7-2.3,2.8-2.5c0.6-0.1,2.3,1.6,2.3,2.5
			C-51.2,396.8-52.5,397.9-53.8,400z"/>
		<path class="st0" d="M-45.2,391.8c1.5,1.9,3,3,2.9,4c0,0.9-1.6,2.3-2.7,2.6c-0.7,0.2-2.4-1.4-2.5-2.2
			C-47.5,395.1-46.3,393.9-45.2,391.8z"/>
		<path class="st0" d="M-183.7,404.6c-1.9,1.4-2.9,2.8-3.9,2.7s-1.9-1.5-2.9-2.4c0.9-1,1.6-2.6,2.6-2.7
			C-186.9,402.1-185.7,403.4-183.7,404.6z"/>
		<path class="st0" d="M-174.8,404.7c-1.9,1.4-3,2.8-3.9,2.7c-1-0.1-2.7-1.6-2.7-2.4c0-1,1.5-2.5,2.5-2.7
			C-178,402.1-176.8,403.4-174.8,404.7z"/>
		<path class="st0" d="M-169.8,400.8c1.3,2.1,2.7,3.3,2.5,4.3c-0.1,1-1.8,2.1-2.9,2.3c-0.6,0.1-2.3-1.6-2.2-2.5
			C-172.4,403.8-171.1,402.7-169.8,400.8z"/>
		<path class="st0" d="M-148.2,405.1c-1.6,1.1-2.7,2.5-3.5,2.3c-1.1-0.2-2-1.6-3-2.4c0.9-1,1.7-2.7,2.6-2.7
			C-150.9,402.3-149.9,403.7-148.2,405.1z"/>
		<path class="st0" d="M-139.1,405.2c-1.9,1.1-3.1,2.2-4.2,2.2c-0.8,0-2.3-1.7-2.2-2.3c0.3-1.1,1.5-2.8,2.4-2.8
			C-142,402.3-141,403.8-139.1,405.2z"/>
		<path class="st0" d="M-102.5,405.3c1.8-1.5,2.9-2.9,4-3c0.8,0,2.1,1.6,2.4,2.8c0.2,0.6-1.4,2.4-2.1,2.4
			C-99.4,407.4-100.5,406.3-102.5,405.3z"/>
		<path class="st0" d="M-85.6,405.1c-2.1,1.2-3.2,2.3-4.3,2.3c-0.9-0.1-2.5-1.9-2.4-2.3c0.4-1.2,1.6-2.6,2.7-2.8
			C-88.7,402.1-87.6,403.6-85.6,405.1z"/>
		<path class="st0" d="M-72.1,409c-1.2-2.1-2.5-3.5-2.3-4.3c0.3-1,1.9-2.1,3.1-2.3c0.5-0.1,2.1,1.8,2.1,2.6
			C-69.3,406-70.6,407-72.1,409z"/>
		<path class="st0" d="M-62.6,400.8c1.2,2,2.5,3.1,2.4,4.1s-1.7,2.5-2.7,2.4c-0.9,0-2.4-1.6-2.5-2.6
			C-65.4,403.7-64,402.7-62.6,400.8z"/>
		<path class="st0" d="M-49.8,404.7c-1.9,1.4-3,2.8-3.9,2.7c-1-0.1-1.9-1.6-2.9-2.4c0.9-1,1.7-2.5,2.7-2.7
			C-53,402.1-51.8,403.4-49.8,404.7z"/>
		<path class="st0" d="M-31.9,405.2c-2.1,1.1-3.3,2.3-4.4,2.2c-0.8,0-2.4-1.8-2.2-2.5c0.3-1.1,1.6-2.6,2.6-2.7
			C-34.8,402.2-33.8,403.7-31.9,405.2z"/>
		<path class="st0" d="M-23.3,405c-1.5,1.2-2.6,2.5-3.4,2.4c-1.1-0.2-2-1.5-3-2.4c0.9-1,1.7-2.7,2.6-2.7
			C-26,402.2-25,403.7-23.3,405z"/>
		<path class="st0" d="M-14.1,405.5c-2.1,1-3.3,2-4.4,1.9c-0.8,0-2.2-1.9-2-2.5c0.3-1.1,1.8-2.7,2.6-2.6
			C-16.8,402.4-15.9,403.9-14.1,405.5z"/>
		<path class="st0" d="M-183.7,413.6c-1.9,1.4-3,2.8-3.9,2.7c-1-0.1-1.9-1.6-2.9-2.4c0.9-1,1.7-2.5,2.7-2.7
			C-186.9,411.1-185.7,412.4-183.7,413.6z"/>
		<path class="st0" d="M-169.7,409.8c1.2,2,2.6,3.2,2.4,4.1c-0.2,1-1.7,1.8-2.7,2.7c-0.9-1-2.4-1.9-2.4-2.9
			C-172.5,412.7-171.1,411.6-169.7,409.8z"/>
		<path class="st0" d="M-160.8,418c-1.4-2-2.7-3.1-2.7-4.2c0-0.9,1.6-2.7,2.1-2.6c1.2,0.3,2.8,1.4,3,2.4
			C-158.1,414.6-159.5,415.8-160.8,418z"/>
		<path class="st0" d="M-147.9,413.8c-2,1.3-3.2,2.7-4.2,2.5c-1-0.1-2.2-1.7-2.4-2.8c-0.1-0.7,1.6-2.3,2.4-2.3
			C-151,411.3-149.9,412.5-147.9,413.8z"/>
		<path class="st0" d="M-89.6,418c-1.4-2.1-2.8-3.3-2.6-4.3c0.2-1,1.7-2.2,2.9-2.5c0.5-0.1,2.2,1.6,2.2,2.5
			C-87.1,414.8-88.3,415.9-89.6,418z"/>
		<path class="st0" d="M-76.6,413.7c-2.1,1.4-3.1,2.6-4.2,2.6c-0.9,0-2.7-1.7-2.6-2.2c0.3-1.2,1.4-2.7,2.5-2.9
			C-80,411-78.7,412.4-76.6,413.7z"/>
		<path class="st0" d="M-58.7,414.1c-2.1,1.2-3.3,2.3-4.4,2.3c-0.9,0-2.5-1.8-2.3-2.4c0.3-1.1,1.6-2.6,2.6-2.7
			C-61.8,411.1-60.7,412.6-58.7,414.1z"/>
		<path class="st0" d="M-44.7,417.8c-1.4-1.9-2.8-2.9-2.7-3.9s1.6-2.7,2.4-2.7c1,0,2.6,1.4,2.7,2.5
			C-42.1,414.6-43.5,415.9-44.7,417.8z"/>
		<path class="st0" d="M-36.2,417.9c-1.2-2.1-2.3-3.3-2.3-4.4c0-0.9,1.8-2.5,2.3-2.3c1.2,0.4,2.6,1.6,2.8,2.7
			C-33.2,414.8-34.7,415.9-36.2,417.9z"/>
		<path class="st0" d="M-44.7,426.8c-1.4-1.9-2.8-2.9-2.8-3.9c0.1-1,1.5-1.9,2.4-2.9c1,0.9,2.6,1.6,2.7,2.7
			C-42.1,423.6-43.4,424.8-44.7,426.8z"/>
		<path class="st0" d="M-165.9,432c-2,1.2-3.2,2.5-4.1,2.4c-1-0.2-2.5-1.8-2.4-2.7c0-0.9,1.7-2.4,2.7-2.4
			C-168.7,429.1-167.7,430.6-165.9,432z"/>
		<path class="st0" d="M-160.8,427.7c1.3,2,2.6,3.2,2.5,4.1c-0.2,1-1.8,1.8-2.7,2.7c-0.9-1-2.3-1.9-2.4-2.9
			C-163.5,430.6-162.1,429.6-160.8,427.7z"/>
		<path class="st0" d="M-152.3,435.8c-1.1-2.1-2.2-3.3-2.2-4.4c0.1-0.9,1.8-2.5,2.4-2.3c1.1,0.4,2.6,1.6,2.7,2.6
			C-149.3,432.8-150.8,433.9-152.3,435.8z"/>
		<path class="st0" d="M-89.9,435.8c-1.2-2.1-2.6-3.4-2.4-4.4s1.9-2,3.1-2.3c0.6-0.1,2.1,1.7,2,2.6
			C-87.2,432.9-88.5,433.9-89.9,435.8z"/>
		<path class="st0" d="M-76.7,431.5c-1.9,1.4-2.9,2.9-3.8,2.8c-1-0.1-2-1.6-2.9-2.5c0.9-1,1.7-2.5,2.7-2.7
			C-79.9,429-78.7,430.3-76.7,431.5z"/>
		<path class="st0" d="M-67.7,431.9c-2,1.2-3.2,2.6-4.1,2.4c-1-0.2-1.8-1.7-2.7-2.7c1-0.9,1.9-2.4,2.9-2.5
			C-70.7,429.1-69.6,430.5-67.7,431.9z"/>
		<path class="st0" d="M-40.8,432c-2,1.2-3.2,2.5-4.1,2.4c-1-0.1-2.5-1.8-2.4-2.7c0.1-0.9,1.7-2.4,2.7-2.5
			C-43.8,429.1-42.7,430.5-40.8,432z"/>
		<path class="st0" d="M-31.8,431.8c-2.1,1.3-3.3,2.7-4.3,2.5c-1-0.2-2.1-1.8-2.3-2.9c-0.1-0.6,1.6-2.3,2.5-2.2
			C-34.9,429.2-33.8,430.4-31.8,431.8z"/>
		<path class="st0" d="M-178.6,436.7c1.2,2,2.5,3.2,2.4,4.1c-0.2,1-1.7,1.8-2.7,2.7c-0.9-1-2.4-1.9-2.5-2.9
			C-181.5,439.6-180.1,438.6-178.6,436.7z"/>
		<path class="st0" d="M-165.7,440.7c-2.1,1.4-3.3,2.8-4.3,2.6c-1-0.2-2.2-1.8-2.4-2.9c-0.1-0.6,1.6-2.2,2.5-2.2
			C-168.8,438.1-167.8,439.4-165.7,440.7z"/>
		<path class="st0" d="M-152.2,444.9c-1.2-2.1-2.3-3.3-2.2-4.4c0-0.9,1.7-2.5,2.3-2.3c1.1,0.3,2.7,1.6,2.8,2.5
			C-149.3,441.7-150.7,442.8-152.2,444.9z"/>
		<path class="st0" d="M-142.9,444.9c-1.4-2.1-2.5-3.2-2.6-4.3c0-0.8,1.5-2.6,2-2.5c1.2,0.3,2.8,1.3,3,2.3S-141.6,442.7-142.9,444.9
			z"/>
		<path class="st0" d="M-98,444.7c-1.6-1.9-3.1-2.9-3.1-4c0-0.9,1.5-2.2,2.6-2.6c0.5-0.2,2.3,1.3,2.4,2.1
			C-96,441.4-97.1,442.6-98,444.7z"/>
		<path class="st0" d="M-85.6,440.9c-2.1,1.3-3.4,2.6-4.3,2.4c-1.1-0.3-2.1-1.8-2.4-3c-0.1-0.5,1.7-2.2,2.6-2.1
			C-88.6,438.2-87.6,439.5-85.6,440.9z"/>
		<path class="st0" d="M-67.7,440.9c-2,1.2-3.2,2.6-4.1,2.4c-1-0.2-1.8-1.8-2.7-2.8c1-0.9,1.9-2.3,2.9-2.4
			C-70.7,438.1-69.6,439.5-67.7,440.9z"/>
		<path class="st0" d="M-58.7,440.5c-1.9,1.4-3,2.9-3.9,2.8c-1-0.1-2.6-1.6-2.7-2.5c-0.1-0.9,1.5-2.5,2.5-2.6
			C-61.9,438-60.7,439.3-58.7,440.5z"/>
		<path class="st0" d="M-53.6,436.7c1.2,2,2.5,3.2,2.4,4.1c-0.2,1-1.7,1.8-2.7,2.7c-0.9-1-2.4-1.9-2.5-2.9
			C-56.5,439.6-55.1,438.5-53.6,436.7z"/>
		<path class="st0" d="M-31.8,440.6c-2,1.4-3.2,2.8-4.2,2.7s-2.2-1.7-2.4-2.9c-0.1-0.6,1.5-2.3,2.4-2.3
			C-34.9,438.2-33.8,439.4-31.8,440.6z"/>
		<path class="st0" d="M-23.3,440.8c-1.7,1.2-2.9,2.6-3.9,2.5c-0.9-0.1-1.6-1.9-2.4-2.9c1-0.8,2-2.1,3.1-2.2
			C-25.7,438.1-24.7,439.5-23.3,440.8z"/>
		<path class="st0" d="M-14.3,440.7c-1.8,1.2-3,2.6-4,2.6c-0.8,0-2.2-1.9-2.1-3c0-0.8,1.8-2.1,2.9-2.1
			C-16.8,438.1-15.8,439.5-14.3,440.7z"/>
		<path class="st0" d="M-187.7,453.7c-1.3-1.9-2.6-3-2.7-4.1c-0.1-0.8,1.6-2.5,2.2-2.4c1.1,0.2,2.7,1.4,2.9,2.3
			C-185.1,450.5-186.4,451.7-187.7,453.7z"/>
		<path class="st0" d="M-169.9,453.8c-1.3-2-2.5-3.1-2.5-4.2c0-0.8,1.6-2.5,2.3-2.4c1.1,0.2,2.8,1.4,2.9,2.4
			C-167.2,450.5-168.6,451.7-169.9,453.8z"/>
		<path class="st0" d="M-94.6,449.8c-2.1,1.3-3.4,2.7-4.1,2.4c-1.1-0.4-1.8-2-2.6-3c0.9-0.7,1.9-2.1,2.8-2.1
			C-97.5,447.1-96.5,448.4-94.6,449.8z"/>
		<path class="st0" d="M-67.6,450c-2.2,1.2-3.5,2.5-4.4,2.3c-1-0.3-2-1.9-2.3-3.1c-0.1-0.5,1.8-2.1,2.7-2
			C-70.6,447.2-69.6,448.5-67.6,450z"/>
		<path class="st0" d="M-54.1,453.7c-1.2-2-2.5-3.3-2.3-4.3s1.9-2.1,3-2.2c0.6-0.1,2.2,1.7,2.1,2.5
			C-51.4,450.8-52.7,451.8-54.1,453.7z"/>
		<path class="st0" d="M-40.8,449.3c-2,1.5-3,3-4,3c-1-0.1-2.3-1.6-2.6-2.7c-0.2-0.6,1.4-2.4,2.2-2.4
			C-44.1,447.1-42.9,448.2-40.8,449.3z"/>
		<path class="st0" d="M-169.9,454.5c1.3,2,2.8,3.3,2.6,4.1c-0.3,1.1-1.8,2.2-2.9,2.5c-0.5,0.1-2.2-1.6-2.2-2.5
			C-172.4,457.6-171.2,456.6-169.9,454.5z"/>
		<path class="st0" d="M-80.6,454.5c1.3,2,2.5,3.1,2.4,4.1c0,0.9-1.7,2.7-2.1,2.5c-1.2-0.4-2.7-1.5-3-2.6
			C-83.5,457.8-82,456.5-80.6,454.5z"/>
		<path class="st0" d="M-67.8,458.7c-1.8,1.3-3,2.6-3.7,2.4c-1.2-0.3-2-1.6-3-2.6c0.9-0.9,1.8-2.4,2.9-2.5
			C-70.7,456-69.6,457.4-67.8,458.7z"/>
		<path class="st0" d="M-40.7,458.6c-2.2,1.3-3.4,2.7-4.4,2.6c-1-0.1-2.1-1.7-2.4-2.9c-0.1-0.6,1.6-2.2,2.5-2.2
			C-43.9,456.1-42.8,457.3-40.7,458.6z"/>
		<path class="st0" d="M-36.3,462.4c-1.1-2-2.1-3.1-2.1-4.2c0-0.8,1.7-2.3,2.3-2.1c1.1,0.3,2.8,1.6,2.8,2.4
			C-33.4,459.6-34.8,460.6-36.3,462.4z"/>
		<path class="st0" d="M-36.5,463.7c1.6,1.7,3.3,2.8,3.1,3.5c-0.2,1.1-1.7,2-2.6,3c-0.9-1-2.2-1.8-2.5-2.9
			C-38.7,466.6-37.5,465.5-36.5,463.7z"/>
		<path class="st0" d="M-36.3,499.1c1.5,1.8,2.9,2.8,3,3.9c0,0.8-1.7,2.1-2.8,2.4c-0.6,0.2-2.3-1.4-2.3-2.1
			C-38.5,502.2-37.4,501.1-36.3,499.1z"/>
		<path class="st0" d="M-103.7,342.4c-1.8,1.4-3.1,2.9-3.8,2.7c-1.1-0.3-1.9-1.8-2.8-2.8c1-0.8,2-2,3.2-2.2
			C-106.4,339.9-105.4,341.2-103.7,342.4z"/>
		<path class="st0" d="M-94.7,350.9c-1.8,1.6-2.8,3.2-3.7,3.1c-1.1-0.2-2-1.7-3-2.6c1-0.8,1.8-2.1,2.9-2.4
			C-97.7,348.8-96.6,349.9-94.7,350.9z"/>
		<path class="st0" d="M-89.3,355.2c-1.4-1.7-2.8-2.7-2.9-3.8c0-0.8,1.6-2.1,2.7-2.4c0.7-0.2,2.4,1.3,2.4,2
			C-87.2,352.2-88.3,353.4-89.3,355.2z"/>
		<path class="st0" d="M-62.7,347.6c1.3,2,2.7,3.2,2.5,4c-0.3,1-1.7,2.2-2.9,2.4c-0.6,0.1-2.2-1.6-2.3-2.5
			C-65.4,350.5-64.1,349.5-62.7,347.6z"/>
		<path class="st0" d="M-94.6,360.2c-1.9,1.4-3.1,2.8-3.9,2.7c-1.1-0.2-1.9-1.8-2.8-2.7c1-0.8,2-1.9,3.1-2.1
			C-97.5,357.9-96.4,359.1-94.6,360.2z"/>
		<path class="st0" d="M-89.5,356.6c1.2,1.9,2.4,3,2.3,4c-0.1,0.9-1.7,2.6-2.2,2.4c-1.2-0.4-2.6-1.4-2.9-2.5
			C-92.5,359.7-90.9,358.5-89.5,356.6z"/>
		<path class="st0" d="M-151.9,365.3c1.3,1.8,2.6,3,2.6,4c0,0.8-1.9,1.9-3,2.1c-0.6,0.1-2.2-1.6-2.1-2.3
			C-154.4,368.1-153.2,367.1-151.9,365.3z"/>
		<path class="st0" d="M-143.6,372.8c-1-1.8-2.1-2.9-1.9-3.6c0.4-1.1,1.6-1.9,2.5-2.9c0.9,1,2.4,1.9,2.5,3
			C-140.4,370.1-142,371.2-143.6,372.8z"/>
		<path class="st0" d="M-98.5,372.9c-1.4-1.8-2.9-3-2.7-3.8c0.3-1.1,1.8-1.8,2.8-2.7c0.8,1,2,2,2.3,3.1
			C-96,370.2-97.2,371.2-98.5,372.9z"/>
		<path class="st0" d="M-85.5,369.4c-2.2,1.1-3.3,2.2-4.3,2.1c-0.9-0.1-1.8-1.4-2.6-2.2c0.9-1,1.8-2.5,2.9-2.8
			C-88.8,366.4-87.6,367.9-85.5,369.4z"/>
		<path class="st0" d="M-58.6,369.2c-2.2,1.2-3.3,2.3-4.4,2.2c-0.9,0-1.7-1.4-2.6-2.2c0.9-1,1.7-2.6,2.7-2.7
			C-61.9,366.4-60.7,367.8-58.6,369.2z"/>
		<path class="st0" d="M-54,365.3c1.3,1.7,2.6,2.6,2.8,3.8c0.1,0.7-1.5,2.4-2.2,2.3c-1.1-0.1-2.8-1.2-2.9-2.1
			C-56.5,368.3-55.2,367.2-54,365.3z"/>
		<path class="st0" d="M-143.2,382c-1.2-2.1-2.4-3.2-2.3-4.2c0.1-0.9,1.4-1.8,2.2-2.6c1,0.9,2.5,1.7,2.8,2.8
			C-140.3,378.8-141.8,380-143.2,382z"/>
		<path class="st0" d="M-98.6,374.1c1.2,1.9,2.4,2.9,2.5,4c0.1,0.8-1.5,2.5-2.1,2.3c-1.1-0.2-2.9-1.3-2.9-2.2
			C-101.2,377.2-99.9,376-98.6,374.1z"/>
		<path class="st0" d="M-72.1,381.8c-1.1-1.9-2.5-3.2-2.3-4c0.3-1,1.9-1.7,3-2.5c0.8,1.1,2,2.1,2.2,3.3
			C-69.1,379.3-70.6,380.3-72.1,381.8z"/>
		<path class="st0" d="M-58.6,378.1c-2.1,1.2-3.2,2.4-4.3,2.4c-0.9,0-2.6-1.7-2.5-2.1c0.4-1.2,1.5-2.7,2.5-2.9
			C-62,375.3-60.7,376.7-58.6,378.1z"/>
		<path class="st0" d="M-49.7,377.9c-2,1.4-3.1,2.6-4.1,2.6c-0.9,0-1.8-1.3-2.8-2c0.8-1.1,1.5-2.7,2.5-3
			C-53.1,375.2-51.8,376.6-49.7,377.9z"/>
		<path class="st0" d="M-40.8,378.4c-2.1,1-3.2,2.1-4.3,2c-0.8,0-2.4-1.8-2.3-2.2c0.4-1.1,1.6-2.7,2.5-2.8
			C-43.9,375.5-42.8,377-40.8,378.4z"/>
		<path class="st0" d="M-174.7,386.9c-2.1,1.3-3.1,2.5-4.2,2.6c-0.9,0-2.7-1.6-2.6-2.1c0.3-1.2,1.4-2.8,2.3-3
			C-178.1,384.2-176.8,385.6-174.7,386.9z"/>
		<path class="st0" d="M-165.7,387.1c-2.1,1.3-3.2,2.4-4.3,2.4c-0.9,0-2.6-1.7-2.4-2.2c0.3-1.1,1.5-2.7,2.4-2.8
			C-169,384.3-167.8,385.7-165.7,387.1z"/>
		<path class="st0" d="M-148.1,386.9c-1.6,1.2-2.5,2.6-3.4,2.5c-1.1-0.1-2.1-1.3-3.1-2.1c0.8-1.1,1.5-2.9,2.4-3
			C-151.2,384.3-150,385.7-148.1,386.9z"/>
		<path class="st0" d="M-143.1,383.1c1.3,1.9,2.7,3,2.6,4.1c0,0.8-1.9,1.6-2.9,2.4c-0.8-1-2-2-2.1-3
			C-145.6,385.7-144.3,384.7-143.1,383.1z"/>
		<path class="st0" d="M-130.1,387.3c-2,1.1-3.1,2.2-4.2,2.2c-0.8,0-2.3-1.7-2.1-2.3c0.3-1.1,1.6-2.7,2.4-2.7
			C-133,384.4-132,385.9-130.1,387.3z"/>
		<path class="st0" d="M-121.4,387c-1.8,1.2-2.8,2.4-3.9,2.5c-0.7,0.1-2.3-1.5-2.2-2.1c0.2-1.1,1.3-2.9,2.1-3
			C-124.4,384.3-123.2,385.7-121.4,387z"/>
		<path class="st0" d="M-112.7,387.1c-1.7,1.2-2.7,2.5-3.3,2.4c-1.1-0.3-2.1-1.4-3.1-2.2c0.9-1,1.6-2.5,2.7-2.8
			C-115.7,384.2-114.5,385.7-112.7,387.1z"/>
		<path class="st0" d="M-98,383c0.9,2.1,1.9,3.3,1.8,4.5c-0.1,0.8-1.9,2.2-2.5,2c-1.1-0.3-2.6-1.8-2.5-2.6
			C-101,385.8-99.5,384.8-98,383z"/>
		<path class="st0" d="M-89.2,383c1,2,2.1,3.2,2.1,4.3c0,0.8-1.7,2.3-2.3,2.1c-1.1-0.3-2.8-1.6-2.8-2.4
			C-92.2,385.9-90.7,384.9-89.2,383z"/>
		<path class="st0" d="M-71.7,391c-1.4-2-2.9-3.2-2.7-4c0.2-1.1,1.7-2.2,2.9-2.6c0.5-0.2,2.3,1.5,2.3,2.4
			C-69.2,387.9-70.4,389-71.7,391z"/>
		<path class="st0" d="M-58.6,387.1c-2.1,1.3-3.3,2.4-4.3,2.4c-0.9,0-2.6-1.7-2.4-2.2c0.4-1.2,1.5-2.7,2.5-2.8
			C-61.9,384.2-60.7,385.7-58.6,387.1z"/>
		<path class="st0" d="M-49.7,386.9c-2,1.4-3.1,2.6-4.2,2.6c-0.9,0-2.7-1.5-2.6-2.1c0.3-1.2,1.3-2.8,2.3-3
			C-53.1,384.2-51.9,385.6-49.7,386.9z"/>
		<path class="st0" d="M-183.7,396.3c-2.1,1.1-3.3,2.2-4.4,2.1c-0.9-0.1-2.4-1.9-2.2-2.4c0.4-1.1,1.7-2.6,2.7-2.7
			C-186.7,393.3-185.6,394.8-183.7,396.3z"/>
		<path class="st0" d="M-174.6,395.9c-2.1,1.3-3.2,2.5-4.3,2.5c-0.9,0-2.6-1.6-2.5-2.1c0.3-1.2,1.4-2.8,2.4-3
			C-178,393.1-176.8,394.5-174.6,395.9z"/>
		<path class="st0" d="M-152,399.8c-1.2-1.8-2.5-2.8-2.5-3.8s1.3-1.9,2.1-2.9c1.1,1,2.4,2,3.1,3.2
			C-149.1,396.7-150.6,398.1-152,399.8z"/>
		<path class="st0" d="M-139.1,396.2c-1.9,1.1-3.1,2.2-4.2,2.2c-0.8,0-2.3-1.7-2.2-2.3c0.3-1.1,1.6-2.8,2.4-2.8
			C-142,393.3-141,394.8-139.1,396.2z"/>
		<path class="st0" d="M-121.4,395.9c-1.8,1.2-2.8,2.4-3.9,2.5c-0.7,0.1-2.4-1.5-2.3-2.1c0.2-1.1,1.3-2.9,2.1-3
			C-124.4,393.2-123.2,394.6-121.4,395.9z"/>
		<path class="st0" d="M-112.6,396.2c-2,1.2-3.1,2.3-4.1,2.3c-0.9-0.1-2.6-1.8-2.4-2.2c0.4-1.2,1.5-2.6,2.6-2.9
			C-115.7,393.1-114.5,394.7-112.6,396.2z"/>
		<path class="st0" d="M-94.6,395.7c-1.9,1.4-2.9,2.7-3.9,2.7c-0.9,0-2.8-1.6-2.6-2c0.4-1.2,1.3-2.7,2.4-3.1
			C-98,393.1-96.6,394.5-94.6,395.7z"/>
		<path class="st0" d="M-89.6,392.1c1.2,1.6,2.6,2.5,2.5,3.4c-0.1,1.1-1.4,2.9-2.1,2.9c-1.1,0-2.9-1.3-3-2.2
			C-92.3,395.1-90.9,393.9-89.6,392.1z"/>
		<path class="st0" d="M-62.7,400c-1.4-2.1-2.6-3.1-2.6-4.2c0-0.9,1.7-2.6,2.3-2.5c1.2,0.3,2.6,1.4,2.9,2.5
			C-60,396.7-61.4,397.9-62.7,400z"/>
		<path class="st0" d="M-32.1,396.3c-1.7,1-2.8,2.3-3.7,2.1c-1.1-0.2-1.9-1.6-2.8-2.5c0.9-0.9,1.9-2.7,2.7-2.6
			C-34.8,393.4-33.8,394.9-32.1,396.3z"/>
		<path class="st0" d="M-23.1,396.5c-2,1-3.2,2-4.4,1.9c-0.8,0-2.2-1.8-2.1-2.4c0.3-1.1,1.7-2.7,2.5-2.7
			C-25.9,393.4-24.9,394.9-23.1,396.5z"/>
		<path class="st0" d="M-161.1,409c-1.2-2.1-2.4-3.3-2.3-4.4c0.1-0.9,1.8-2.5,2.3-2.4c1.2,0.4,2.6,1.6,2.8,2.6
			C-158.2,405.8-159.7,407-161.1,409z"/>
		<path class="st0" d="M-134.4,408.9c-1.1-1.9-2.3-2.9-2.1-3.7c0.2-1.1,1.5-2.1,2.3-3.1c1,0.9,2.5,1.8,2.7,2.9
			C-131.4,405.8-132.9,407-134.4,408.9z"/>
		<path class="st0" d="M-103.7,405c-1.7,1.3-2.7,2.6-3.4,2.4c-1.2-0.3-2.1-1.5-3.1-2.3c0.9-1,1.7-2.5,2.8-2.8
			C-106.7,402.1-105.5,403.6-103.7,405z"/>
		<path class="st0" d="M-76.6,404.7c-2.1,1.4-3.1,2.6-4.2,2.7c-0.9,0-2.7-1.6-2.6-2.2c0.3-1.2,1.4-2.7,2.5-3
			C-80,402-78.7,403.4-76.6,404.7z"/>
		<path class="st0" d="M-40.8,405.1c-2.1,1.2-3.2,2.4-4.3,2.3c-0.8,0-2.5-1.7-2.3-2.4c0.3-1.1,1.5-2.7,2.5-2.8
			C-43.9,402.2-42.8,403.6-40.8,405.1z"/>
		<path class="st0" d="M-139.2,414.4c-2,1-3.2,2.1-4.3,2c-0.8-0.1-2.2-1.9-2-2.6c0.3-1.1,1.8-2.6,2.6-2.5
			C-141.8,411.4-140.8,412.9-139.2,414.4z"/>
		<path class="st0" d="M-130.4,413.6c-1.7,1.3-2.7,2.5-3.8,2.8c-0.7,0.1-2.4-1.5-2.3-2.1c0.2-1.2,1.2-2.9,2.1-3
			C-133.4,411.1-132.2,412.5-130.4,413.6z"/>
		<path class="st0" d="M-107.4,417.9c-1.4-2-2.8-3.2-2.7-4.1c0.2-1,1.8-1.8,2.8-2.7c0.8,1.1,2,2,2.2,3.2
			C-105,415-106.2,416.1-107.4,417.9z"/>
		<path class="st0" d="M-94.6,413.6c-2,1.4-3,2.7-4,2.7c-0.9,0-2.7-1.6-2.6-2.1c0.3-1.2,1.4-2.7,2.4-3
			C-97.9,411-96.6,412.4-94.6,413.6z"/>
		<path class="st0" d="M-23,413.7c-1.9,1.4-2.9,2.6-4,2.7c-0.8,0.1-2.5-1.6-2.4-2.2c0.2-1.1,1.3-2.8,2.3-2.9
			C-26.2,411.1-25,412.4-23,413.7z"/>
		<path class="st0" d="M-14.3,413.7c-1.7,1.3-2.6,2.5-3.8,2.7c-0.7,0.1-2.5-1.5-2.4-2.2c0.1-1.1,1.3-2.8,2.2-2.9
			C-17.3,411.1-16.1,412.5-14.3,413.7z"/>
		<path class="st0" d="M-161.2,418.6c1.5,2,3,3.1,2.9,4.1c-0.1,1-1.6,2.3-2.7,2.6c-0.6,0.2-2.3-1.4-2.4-2.3
			C-163.5,421.9-162.4,420.8-161.2,418.6z"/>
		<path class="st0" d="M-148,422.9c-1.9,1.2-3.1,2.5-4.1,2.4c-1-0.1-2.4-1.8-2.4-2.7s1.7-2.4,2.6-2.5
			C-150.8,420.2-149.8,421.6-148,422.9z"/>
		<path class="st0" d="M-143,426.9c-1.3-2.1-2.5-3.1-2.5-4.2c0-0.9,1.3-1.8,2.1-2.7c1,0.9,2.7,1.6,2.9,2.6
			C-140.3,423.5-141.7,424.8-143,426.9z"/>
		<path class="st0" d="M-134.5,418.7c1.5,1.9,3.1,3,3,3.9c-0.1,1-1.5,2.2-2.7,2.7c-0.4,0.2-2.3-1.4-2.3-2.2
			C-136.6,422-135.5,420.8-134.5,418.7z"/>
		<path class="st0" d="M-116.4,427c-1.4-2.1-2.8-3.3-2.6-4.3c0.2-1,1.8-1.8,2.8-2.7c0.8,0.9,2.1,1.7,2.1,2.6
			C-114.1,423.7-115.2,424.8-116.4,427z"/>
		<path class="st0" d="M-107.1,426.8c-1.6-1.9-3.1-2.9-3-3.9s1.5-2.3,2.6-2.7c0.4-0.2,2.3,1.4,2.4,2.2
			C-105,423.5-106.1,424.7-107.1,426.8z"/>
		<path class="st0" d="M-94.6,422.6c-1.9,1.4-3.1,2.9-3.9,2.7c-1.1-0.2-2.3-1.7-2.6-2.8c-0.2-0.6,1.5-2.3,2.4-2.4
			C-97.7,420.1-96.6,421.4-94.6,422.6z"/>
		<path class="st0" d="M-89.4,418.7c1.1,2,2.4,3.2,2.2,4.2c-0.2,1-1.7,1.8-2.6,2.6c-0.9-1-2.4-1.9-2.5-2.9
			C-92.3,421.7-90.9,420.6-89.4,418.7z"/>
		<path class="st0" d="M-76.6,423c-2.1,1.2-3.3,2.4-4.4,2.4c-0.9-0.1-2.5-1.8-2.4-2.4c0.3-1.1,1.6-2.6,2.6-2.7
			C-79.8,420.1-78.6,421.5-76.6,423z"/>
		<path class="st0" d="M-31.9,423c-2,1.2-3.3,2.5-4.3,2.4c-1-0.2-2.1-1.8-2.3-3c-0.1-0.6,1.7-2.3,2.5-2.2
			C-34.8,420.3-33.8,421.6-31.9,423z"/>
		<path class="st0" d="M-26.8,427c-1.4-2.1-2.6-3.1-2.7-4.2c0-0.9,1.6-2.7,2.1-2.6c1.2,0.3,2.8,1.4,3,2.4
			C-24.2,423.5-25.6,424.8-26.8,427z"/>
		<path class="st0" d="M-18.3,426.9c-1.2-2.1-2.3-3.3-2.2-4.4c0-0.9,1.8-2.6,2.2-2.4c1.2,0.4,2.7,1.6,2.8,2.6
			S-16.8,424.9-18.3,426.9z"/>
		<path class="st0" d="M-9,427c-1.3-2.1-2.5-3.2-2.5-4.2c0-0.9,1.3-1.8,2.1-2.7c1,0.8,2.7,1.6,2.9,2.6C-6.4,423.5-7.7,424.8-9,427z"
			/>
		<path class="st0" d="M-139.3,431.8c-1.7,1.2-2.9,2.6-3.9,2.5c-0.9-0.1-1.6-1.9-2.4-2.9c1-0.8,2-2.1,3.1-2.2
			C-141.7,429.1-140.8,430.6-139.3,431.8z"/>
		<path class="st0" d="M-130.3,431.9c-1.8,1.1-3.1,2.5-4,2.4c-0.9-0.2-2-1.9-2.1-3c-0.1-0.6,1.7-2.2,2.3-2.1
			C-133,429.4-132,430.6-130.3,431.9z"/>
		<path class="st0" d="M-107.4,436c-1.4-2.2-2.8-3.4-2.6-4.4c0.2-1,1.8-2,2.9-2.5c0.4-0.1,2,1.6,2,2.4
			C-105.1,432.7-106.2,433.8-107.4,436z"/>
		<path class="st0" d="M-94.6,432c-2.1,1.2-3.4,2.5-4.2,2.3c-1.1-0.3-2.1-1.9-2.3-3.1c-0.1-0.5,1.7-2.1,2.6-2.1
			C-97.5,429.2-96.5,430.5-94.6,432z"/>
		<path class="st0" d="M-23,431.9c-2,1.2-3.1,2.4-4.2,2.4c-0.8,0-2.4-1.7-2.2-2.4c0.2-1.1,1.5-2.6,2.5-2.7
			C-26,429.1-24.9,430.5-23,431.9z"/>
		<path class="st0" d="M-14.3,431.8c-1.7,1.2-2.9,2.6-3.9,2.5c-0.9-0.1-2.1-1.8-2.2-2.9c-0.1-0.7,1.6-2.3,2.4-2.2
			C-17,429.3-16,430.6-14.3,431.8z"/>
		<path class="st0" d="M-5.4,431.6c-1.7,1.3-2.6,2.6-3.8,2.8c-0.7,0.1-2.4-1.5-2.4-2.2c0.1-1.1,1.3-2.9,2.1-2.9
			C-8.3,429.1-7.2,430.4-5.4,431.6z"/>
		<path class="st0" d="M-161.2,444.8c-1.2-2.1-2.3-3.2-2.3-4.4c0-0.8,1.8-2.4,2.4-2.2c1.1,0.3,2.7,1.6,2.7,2.6
			C-158.3,441.7-159.7,442.8-161.2,444.8z"/>
		<path class="st0" d="M-130.3,440.7c-1.8,1.2-3,2.6-4,2.5c-0.8-0.1-2-1.8-2.1-3c-0.1-0.6,1.6-2.2,2.3-2.1
			C-133.1,438.3-132.1,439.5-130.3,440.7z"/>
		<path class="st0" d="M-106.9,436.6c0.9,2.2,1.9,3.4,1.8,4.4c-0.1,0.9-1.6,1.6-2.4,2.4c-0.9-1-2.5-1.9-2.6-3
			C-110.2,439.5-108.5,438.5-106.9,436.6z"/>
		<path class="st0" d="M-76.6,441c-2.2,1.2-3.5,2.5-4.4,2.2c-1-0.3-2.1-1.9-2.3-3.1c-0.1-0.5,1.8-2.1,2.7-2
			C-79.5,438.2-78.6,439.5-76.6,441z"/>
		<path class="st0" d="M-45.2,444.8c-1.2-2.1-2.3-3.2-2.3-4.4c0-0.8,1.8-2.4,2.4-2.2c1.1,0.3,2.6,1.6,2.7,2.6
			C-42.2,441.7-43.7,442.8-45.2,444.8z"/>
		<path class="st0" d="M-174.6,449.5c-2.1,1.5-3.3,2.9-4.2,2.8c-1-0.2-2.2-1.7-2.6-2.8c-0.2-0.5,1.5-2.2,2.4-2.3
			C-177.9,447.1-176.8,448.2-174.6,449.5z"/>
		<path class="st0" d="M-161.3,453.7c-1.1-2.1-2.2-3.3-2.2-4.4c0-0.8,1.8-2.4,2.5-2.2c1.1,0.3,2.6,1.7,2.6,2.6
			C-158.3,450.8-159.8,451.8-161.3,453.7z"/>
		<path class="st0" d="M-152.2,445.5c1.5,2,3,3.3,2.8,4c-0.3,1.1-1.9,1.9-2.9,2.8c-0.8-0.9-2.2-1.8-2.2-2.7
			C-154.5,448.7-153.4,447.6-152.2,445.5z"/>
		<path class="st0" d="M-139.1,449.4c-1.9,1.4-3,2.8-4.1,2.8c-0.8,0-2-1.8-2.3-2.9c-0.1-0.6,1.5-2.2,2.3-2.2
			C-142.1,447.2-141,448.3-139.1,449.4z"/>
		<path class="st0" d="M-85.7,449.9c-1.9,1.2-3.3,2.6-4.1,2.3c-1.1-0.4-1.8-2-2.6-3.1c1.1-0.7,2.2-1.9,3.4-2
			C-88.3,447.1-87.4,448.5-85.7,449.9z"/>
		<path class="st0" d="M-76.6,449.7c-2.1,1.3-3.4,2.8-4.3,2.5c-1.1-0.2-2.2-1.8-2.5-2.9c-0.1-0.5,1.6-2.2,2.5-2.2
			C-79.7,447.1-78.7,448.4-76.6,449.7z"/>
		<path class="st0" d="M-63.1,445.6c1.5,1.9,3,3,2.9,3.9c-0.1,1.1-1.5,2.4-2.7,2.7c-0.6,0.2-2.4-1.4-2.5-2.3
			C-65.5,448.9-64.3,447.7-63.1,445.6z"/>
		<path class="st0" d="M-35.7,445.8c1.2,1.7,2.7,3.1,2.4,3.6c-0.7,1.2-2.1,2.1-3.2,3c-0.7-1-2-2-2-2.9
			C-38.4,448.5-37.1,447.5-35.7,445.8z"/>
		<path class="st0" d="M-23.1,449.1c-1.8,1.5-2.9,3-3.9,3.1c-0.8,0-2.2-1.6-2.5-2.7c-0.2-0.6,1.3-2.3,2.1-2.4
			C-26.2,447.1-25.1,448.1-23.1,449.1z"/>
		<path class="st0" d="M-174.7,458.4c-2.1,1.4-3.3,2.9-4.2,2.7c-1-0.1-2.2-1.7-2.5-2.8c-0.2-0.5,1.5-2.2,2.4-2.2
			C-177.9,456-176.8,457.2-174.7,458.4z"/>
		<path class="st0" d="M-85.6,457.9c-1.8,1.7-2.9,3.3-3.7,3.2c-1.1-0.2-2.1-1.7-3.1-2.6c0.8-0.9,1.5-2.3,2.4-2.5
			C-89,455.9-87.8,457-85.6,457.9z"/>
		<path class="st0" d="M-58.6,458.5c-2.1,1.4-3.3,2.8-4.2,2.7c-1-0.2-2.2-1.7-2.5-2.8c-0.2-0.5,1.5-2.2,2.4-2.2
			C-61.9,456.1-60.7,457.2-58.6,458.5z"/>
		<path class="st0" d="M-54.1,462.4c-1.2-1.8-2.4-2.9-2.4-4c0-0.8,1.7-2.4,2.3-2.3c1.1,0.2,2.8,1.5,2.8,2.3
			C-51.2,459.5-52.7,460.6-54.1,462.4z"/>
		<path class="st0" d="M-27,454.5c1.4,2.1,2.8,3.3,2.6,4.1c-0.3,1.1-1.9,1.8-2.9,2.7c-0.8-0.9-2.1-1.8-2.1-2.7
			C-29.5,457.6-28.3,456.5-27,454.5z"/>
		<path class="st0" d="M-71.5,471.3c-1.4-1.7-2.7-2.6-2.9-3.7c-0.1-0.7,1.4-2.5,2.2-2.4c1.1,0.1,2.9,1.2,3,2
			C-69.1,468.2-70.4,469.4-71.5,471.3z"/>
		<path class="st0" d="M-58.7,467.7c-2.2,1.2-3.5,2.6-4.4,2.4c-1-0.2-2-1.9-2.3-3.1c-0.1-0.4,1.7-2,2.6-1.9
			C-61.7,465.1-60.6,466.3-58.7,467.7z"/>
		<path class="st0" d="M-49.8,467.1c-1.9,1.5-3,3-4,3c-1-0.1-2.2-1.5-2.7-2.7c-0.2-0.4,1.4-2.3,2.3-2.3
			C-53.1,465-51.9,466-49.8,467.1z"/>
		<path class="st0" d="M-45.2,471.2c-1.1-1.9-2.4-3.1-2.2-4.1c0.1-0.9,1.8-2,2.9-2.1c0.7,0,2.3,1.7,2.2,2.4
			C-42.6,468.6-43.8,469.6-45.2,471.2z"/>
		<path class="st0" d="M-49.6,476.4c-2.2,1.4-3.4,2.8-4.4,2.6c-1-0.2-1.8-1.8-2.7-2.8c0.9-0.7,1.7-2.1,2.6-2.1
			C-52.9,474.1-51.8,475.1-49.6,476.4z"/>
		<path class="st0" d="M-40.7,476.2c-2.1,1.4-3.3,2.9-4.3,2.8s-2-1.7-2.4-2.9c-0.1-0.4,1.6-2,2.4-2C-43.9,474-42.8,475.1-40.7,476.2
			z"/>
		<path class="st0" d="M-44.8,490.3c1.2,1.8,2.6,3,2.5,4c0,0.8-1.8,2-3,2.1c-0.6,0.1-2.2-1.6-2.1-2.3C-47.3,493-46.1,492-44.8,490.3
			z"/>
		<path class="st0" d="M-36.2,490.3c1.4,1.7,2.8,2.7,2.9,3.8c0,0.8-1.6,2.1-2.7,2.4c-0.6,0.1-2.4-1.3-2.4-2.1
			C-38.4,493.3-37.3,492.2-36.2,490.3z"/>
		<path class="st0" d="M-40.7,503.3c-2.2,1.1-3.4,2.2-4.5,2.2c-0.8,0-2.4-1.8-2.2-2.3c0.4-1.1,1.6-2.7,2.6-2.8
			C-43.9,500.3-42.8,501.8-40.7,503.3z"/>
		<path class="st0" d="M-116.1,347.5c1.1,2,2.2,3.2,2,3.9c-0.3,1.1-1.6,1.9-2.5,2.9c-0.9-0.9-2.4-1.8-2.4-2.7
			C-119,350.5-117.6,349.5-116.1,347.5z"/>
		<path class="st0" d="M-104.5,350.1c-0.9,1.4-1.7,2.7-2.6,4.1c-1.1-1-2.2-2-3.2-3c1.3-1,2.6-1.9,3.9-2.9
			C-105.7,348.9-105.1,349.5-104.5,350.1z"/>
		<path class="st0" d="M-130,360c-1.9,1.5-3,2.9-4,2.9c-0.9,0-2.1-1.5-2.5-2.6c-0.2-0.5,1.3-2.2,2.1-2.2
			C-133.3,358-132.1,359-130,360z"/>
		<path class="st0" d="M-128.3,357.3c2.7,0.8,4.3,1,5.4,1.8c0.4,0.2,0.1,2.3-0.5,2.9s-2.7,0.9-3,0.5
			C-127.2,361.5-127.4,359.9-128.3,357.3z"/>
		<path class="st0" d="M-113.3,359.5c-1,1.1-2.1,2.3-3.1,3.4c-0.9-1-1.9-1.9-2.8-2.9c1.4-0.9,2.7-1.8,4.1-2.6
			C-114.5,358.1-113.9,358.8-113.3,359.5z"/>
		<path class="st0" d="M-103.6,360c-1.7,1.5-2.8,3-3.4,2.8c-1.2-0.3-2.2-1.5-3.2-2.4c1-0.8,1.8-2.1,2.9-2.4
			C-106.6,357.8-105.5,359-103.6,360z"/>
		<path class="st0" d="M-133.9,373.1c-1.4-2-2.6-2.9-2.6-3.9c0-0.9,1.3-1.9,2-2.8c1.1,0.8,2.6,1.5,3,2.6
			C-131.3,369.6-132.6,371-133.9,373.1z"/>
		<path class="st0" d="M-128.3,370.1c1-1.2,2.1-2.5,3.1-3.7c0.9,1,1.8,2,2.7,3c-1.3,0.9-2.6,1.8-4,2.7
			C-127.1,371.4-127.7,370.8-128.3,370.1z"/>
		<path class="st0" d="M-115.8,365.1c0.9,2.1,1.8,3.3,1.7,4.4c-0.1,0.8-1.8,2.1-2.4,1.9c-1.1-0.3-2.6-1.7-2.5-2.5
			C-118.9,367.9-117.4,366.9-115.8,365.1z"/>
		<path class="st0" d="M-111.6,369.6c1.9-1.5,2.9-2.9,4-2.9c0.9,0,2.1,1.5,2.5,2.6c0.2,0.5-1.3,2.2-2.1,2.2
			C-108.3,371.5-109.5,370.6-111.6,369.6z"/>
		<path class="st0" d="M-80.4,365.3c1.1,1.8,2.2,2.9,2.2,4.1c0,0.7-1.7,2.2-2.4,2c-1.1-0.2-2.8-1.6-2.7-2.3
			C-83.2,368-81.8,367-80.4,365.3z"/>
		<path class="st0" d="M-44.7,373c-1.4-1.8-2.7-2.8-2.7-3.7s1.5-2.7,2.1-2.6c1.2,0.2,2.7,1.3,3,2.4C-42.1,369.7-43.5,371-44.7,373z"
			/>
		<path class="st0" d="M-130.1,378.1c-1.9,1.2-2.9,2.3-4,2.4c-0.8,0-2.5-1.5-2.3-2c0.2-1.2,1.3-2.9,2.1-3
			C-133.3,375.4-132.1,376.8-130.1,378.1z"/>
		<path class="st0" d="M-125.3,374c1.4,2.1,2.8,3.2,2.7,4.2c-0.1,0.9-1.7,1.9-2.9,2.3c-0.4,0.1-2-1.5-2-2.3
			C-127.5,377.1-126.5,376-125.3,374z"/>
		<path class="st0" d="M-112.6,377.8c-1.9,1.4-2.9,2.6-3.8,2.6s-2.7-1.5-2.6-2c0.3-1.2,1.3-2.6,2.3-3
			C-115.9,375.2-114.6,376.6-112.6,377.8z"/>
		<path class="st0" d="M-106.9,382c-1.7-1.8-3.3-2.9-3.2-3.7c0.2-1.1,1.5-2.3,2.7-2.9c0.4-0.2,2.2,1.3,2.3,2.2
			C-105,378.7-106,379.9-106.9,382z"/>
		<path class="st0" d="M-107.3,391c-1.5-2-3-3.2-2.8-4c0.3-1.1,1.8-1.9,2.8-2.8c0.8,0.9,2.1,1.7,2.2,2.6
			C-105,387.9-106.2,388.9-107.3,391z"/>
		<path class="st0" d="M-121.4,404.8c-1.7,1.3-2.7,2.5-3.8,2.6c-0.7,0.1-2.3-1.5-2.3-2.1c0.2-1.1,1.2-2.9,2.1-3
			C-124.4,402.2-123.2,403.5-121.4,404.8z"/>
		<path class="st0" d="M-112.6,404.7c-1.8,1.4-2.8,2.7-3.8,2.7c-0.9,0-2.7-1.6-2.6-2.1c0.3-1.2,1.3-2.6,2.4-3
			C-115.9,402-114.6,403.4-112.6,404.7z"/>
		<path class="st0" d="M-121.4,413.9c-1.8,1.2-2.8,2.3-4,2.5c-0.7,0.1-2.2-1.6-2.1-2.3c0.2-1.1,1.4-2.8,2.2-2.9
			C-124.3,411.2-123.2,412.6-121.4,413.9z"/>
		<path class="st0" d="M-116.1,409.7c1,2.1,2,3.3,2,4.4c0,0.8-1.8,2.4-2.1,2.3c-1.1-0.5-2.7-1.6-2.7-2.6
			C-119,412.8-117.6,411.7-116.1,409.7z"/>
		<path class="st0" d="M-125.2,418.5c1.4,2.2,2.7,3.4,2.6,4.3c-0.2,1-1.8,1.8-2.7,2.7c-0.8-0.9-2.1-1.8-2.1-2.7
			C-127.5,421.8-126.4,420.7-125.2,418.5z"/>
		<path class="st0" d="M-121.4,431.5c-1.7,1.3-2.7,2.8-3.8,2.8c-0.8,0-2.1-1.6-2.3-2.7c-0.1-0.7,1.4-2.4,2-2.4
			C-124.3,429.2-123.3,430.3-121.4,431.5z"/>
		<path class="st0" d="M-112.8,431.9c-1.8,1.2-3.1,2.6-3.8,2.4c-1.1-0.4-1.7-1.9-2.6-3c1.1-0.8,2.1-1.9,3.3-2.2
			C-115.3,429-114.3,430.5-112.8,431.9z"/>
		<path class="st0" d="M-125.4,444.8c-1.1-2.1-2.2-3.2-2.2-4.3c0-0.9,1.6-2.5,2-2.4c1.2,0.4,2.8,1.5,2.9,2.4
			C-122.5,441.6-123.9,442.7-125.4,444.8z"/>
		<path class="st0" d="M-58.6,360.4c-2.2,1.3-3.3,2.5-4.4,2.4c-0.8,0-1.7-1.6-2.5-2.5c1-0.8,2-2.1,3.1-2.3
			C-61.7,357.9-60.6,359.1-58.6,360.4z"/>
		<path class="st0" d="M-53.6,364.2c-1.4-1.8-2.6-2.8-2.9-3.9c-0.1-0.6,1.4-2.2,2.3-2.2c1,0,2.8,1.2,2.8,1.8
			C-51.3,361-52.4,362.2-53.6,364.2z"/>
	</g>
</g>
</svg>
